<?xml version="1.0" standalone="no"?><!DOCTYPE svg PUBLIC "-//W3C//DTD SVG 1.1//EN" "http://www.w3.org/Graphics/SVG/1.1/DTD/svg11.dtd"><svg t="1553760605083" class="icon" style="" viewBox="0 0 1024 1024" version="1.1" xmlns="http://www.w3.org/2000/svg" p-id="2095" xmlns:xlink="http://www.w3.org/1999/xlink" width="200" height="200"><defs><style type="text/css"></style></defs><path d="M882.6 960h-740c-28.2 0.6-51.7-21.4-52.9-49.5V201.8c0-28.6 23.2-51.8 51.8-51.8h137.8V81.1c0-9.4 7.6-17.1 17.1-17.1h51.8c9.4-0.3 17.3 7.1 17.6 16.5V150h292.6V81.1c0-9.4 7.6-17.1 17.1-17.1h51.8c9.4-0.3 17.3 7.1 17.6 16.5V150h137.8c28.6 0 51.8 23.2 51.8 51.8v708.7c-1.3 27.7-24.2 49.5-51.9 49.5z m0-740c-0.3-9.3-7.8-16.8-17.1-17.1H744.8v51.8c0 9.4-7.6 17.1-17.1 17.1h-51.8c-9.4 0.3-17.3-7.1-17.6-16.5v-53.5H365.7v51.8c0 9.4-7.6 17.1-17.1 17.1h-51.8c-9.4 0.3-17.3-7.1-17.6-16.5v-52.4H158.5c-9.3 0.3-16.8 7.8-17.1 17.1v122.4h740V218.8l1.2 1.2z m0 170.8h-740v499.8c0 9.4 7.6 17.1 17.1 17.1h705.9c9.4 0 17.1-7.6 17.1-17.1l-0.1-499.8zM779 804.6h-68.9c-9.4 0-17.1-7.6-17.1-17.1v-68.9c0-9.4 7.6-17.1 17.1-17.1H779c9.4 0 17.1 7.6 17.1 17.1v68.9c0.3 9.4-7.1 17.3-16.5 17.6h-0.6v-0.5z m0-189.6h-68.9c-9.4 0-17.1-7.6-17.1-17.1V529c0-9.4 7.6-17.1 17.1-17.1H779c9.4 0 17.1 7.6 17.1 17.1v69c0.3 9.4-7.1 17.3-16.5 17.6h-0.6v-0.6zM555.3 804.6h-68.9c-9.7 0-17.6-7.9-17.6-17.6v-68.3c0.3-9.5 8.1-17.1 17.6-17.1h68.9c9.3 0.3 16.8 7.8 17.1 17.1v68.9c0 9.5-7.6 17.3-17.1 17.6v-0.6z m0-189.6h-68.9c-9.7 0-17.6-7.9-17.6-17.6v-68.3c0.3-9.5 8.1-17.1 17.6-17.1h68.9c9.3 0.3 16.8 7.8 17.1 17.1V598c0 9.5-7.6 17.3-17.1 17.6v-0.6zM331 805.2h-68.9c-9.4 0-17.1-7.6-17.1-17.1v-69.5c0-9.4 7.6-17.1 17.1-17.1H331c9.4 0 17.1 7.6 17.1 17.1v68.9c0.3 9.4-7.1 17.3-16.5 17.6-0.2 0.1-0.4 0.1-0.6 0.1z m0-189.6h-68.9c-9.4 0-17.1-7.6-17.1-17.1V529c0-9.4 7.6-17.1 17.1-17.1H331c9.4 0 17.1 7.6 17.1 17.1v69c0.3 9.4-7.1 17.3-16.5 17.6h-0.6z" p-id="2096" fill="#999999"></path></svg>